<svg viewBox="0 0 64 64" xmlns="http://www.w3.org/2000/svg"><path d="M32 2a30 30 0 0130 30H32z" fill="#009bff"/><path d="M62 32a30 30 0 01-8.79 21.21L32 32z" fill="#ff00eb"/><path d="M53.21 53.21A30 30 0 0132 62V32z" fill="#c000f5"/><path d="M32 62a30 30 0 01-21.21-8.79L32 32z" fill="#8000ff"/><path d="M10.79 53.21A30 30 0 012 32h30z" fill="#5603a4"/><path d="M2 32a30 30 0 018.79-21.21L32 32z" fill="#2c0648"/><path d="M10.79 10.79A30 30 0 0132 2v30z" fill="#180124"/><path d="M44.5 19.5h-20v15h10v5h-15v-25h25zm-25 25h20v-15h-10v-5h15v25h-25z" fill="#fff"/></svg>